# File exported by Houdini 21.0.559 (www.sidefx.com)
# 56 points
# 220 vertices
# 57 primitives
# Bounds: [-0.400000006, 0, 0] to [0.160000011, 4, 4.5]
g 
v 0 0 0 1 1 1
v 0 0 4.5 1 1 1
v 0 4 0 1 1 1
v 0 4 4.5 1 1 1
v -0.400000006 0 0 1 1 1
v -0.400000006 0 4.5 1 1 1
v -0.400000006 4 4.5 1 1 1
v -0.400000006 4 0 1 1 1
v 0 0.929999948 1.77999997 1 1 1
v 0 0.929999948 2.72000003 1 1 1
v 0 2.57000017 2.72000003 1 1 1
v 0 2.57000017 1.77999997 1 1 1
v -0.0199999996 0.949999928 2.68000007 1 1 1
v -0.0199999996 0.949999928 1.81999993 1 1 1
v -0.379999995 0.949999928 1.81999993 1 1 1
v -0.379999995 0.949999928 2.68000007 1 1 1
v -0.0199999996 2.53000021 2.70000005 1 1 1
v -0.0199999996 0.969999909 2.70000005 1 1 1
v -0.379999995 0.969999909 2.70000005 1 1 1
v -0.379999995 2.53000021 2.70000005 1 1 1
v -0.0199999996 2.55000019 1.81999993 1 1 1
v -0.0199999996 2.55000019 2.68000007 1 1 1
v -0.379999995 2.55000019 2.68000007 1 1 1
v -0.379999995 2.55000019 1.81999993 1 1 1
v -0.0199999996 0.969999909 1.79999995 1 1 1
v -0.0199999996 2.53000021 1.79999995 1 1 1
v -0.379999995 2.53000021 1.79999995 1 1 1
v -0.379999995 0.969999909 1.79999995 1 1 1
v -0.400000006 0.929999948 2.72000003 1 1 1
v -0.400000006 0.929999948 1.77999997 1 1 1
v -0.400000006 2.57000017 1.77999997 1 1 1
v -0.400000006 2.57000017 2.72000003 1 1 1
v -0.0599999987 0.949999928 1.79999995 1 1 1
v -0.0599999987 0.949999928 2.70000005 1 1 1
v -0.0599999987 2.55000019 2.70000005 1 1 1
v -0.0599999987 2.55000019 1.79999995 1 1 1
v -0.0599999987 1.00999999 1.8599999 1 1 1
v -0.0599999987 1.00999999 2.6400001 1 1 1
v -0.0599999987 2.49000001 2.6400001 1 1 1
v -0.0599999987 2.49000001 1.8599999 1 1 1
v -0.380000025 0.949999928 1.79999995 1 1 1
v -0.380000025 0.949999928 2.70000005 1 1 1
v -0.380000025 1.00999999 2.6400001 1 1 1
v -0.380000025 1.00999999 1.8599999 1 1 1
v -0.380000025 2.55000019 2.70000005 1 1 1
v -0.380000025 2.49000001 2.6400001 1 1 1
v -0.380000025 2.55000019 1.79999995 1 1 1
v -0.380000025 2.49000001 1.8599999 1 1 1
v -0.0599999987 0.949999928 1.75999999 1 1 1
v -0.0599999987 0.949999928 2.74000001 1 1 1
v -0.0599999987 0.889999986 2.74000001 1 1 1
v -0.0599999987 0.889999986 1.75999999 1 1 1
v 0.160000011 0.949999928 2.74000001 1 1 1
v 0.160000011 0.949999928 1.75999999 1 1 1
v 0.160000011 0.889999986 1.75999999 1 1 1
v 0.160000011 0.889999986 2.74000001 1 1 1
vn 1 0 -0
vn 0.990130365 0.0991009176 0.0991009623
vn 0.990130365 0.0991009176 -0.0991009623
vn 1 -0 -0
vn 1 -0 -0
vn 0.990130365 0.0991009176 -0.0991009623
vn 0.990130246 -0.0991009176 -0.0991009623
vn 1 -0 0
vn 1 -0 0
vn 0.990130246 -0.0991009176 -0.0991009623
vn 0.990130246 -0.0991009176 0.0991009623
vn 1 0 0
vn 1 0 0
vn 0.990130246 -0.0991009176 0.0991009623
vn 0.990130365 0.0991009176 0.0991009623
vn 1 0 -0
vn -1 0 -0
vn -1 -0 -0
vn -0.990130246 0.0991009697 -0.0991009846
vn -0.990130246 0.0991009697 0.0991009846
vn -1 -0 -0
vn -1 -0 0
vn -0.990130246 -0.0991009846 -0.0991009921
vn -0.990130246 0.0991009697 -0.0991009846
vn -1 -0 0
vn -1 0 0
vn -0.990130246 -0.0991009846 0.0991009921
vn -0.990130246 -0.0991009846 -0.0991009921
vn -1 0 0
vn -1 0 -0
vn -0.990130246 0.0991009697 0.0991009846
vn -0.990130246 -0.0991009846 0.0991009921
vn -0 -1 -0
vn 0 -1 -0
vn -0 -1 -0
vn -0 -1 0
vn 0 0 1
vn -0 -0 1
vn -0 -0 1
vn -0 -0 1
vn -0 1 -0
vn -0 1 -0
vn -0 1 -0
vn 0 1 0
vn -0 0 -1
vn -0 -0 -1
vn 0 -0 -1
vn -0 -0 -1
vn 0.361722261 0.904745698 -0.224927276
vn 0.361722261 0.904745698 0.224927276
vn -0.361722142 0.904745698 0.224927276
vn -0.361722142 0.904745758 -0.224927261
vn 0.361722618 0.224927753 0.90474546
vn 0.361722618 -0.224927753 0.90474546
vn -0.361722469 -0.224927709 0.90474546
vn -0.361722469 0.224927709 0.90474546
vn 0.361722261 -0.904745698 0.224927276
vn 0.361722261 -0.904745698 -0.224927276
vn -0.361722142 -0.904745698 -0.224927276
vn -0.361722142 -0.904745758 0.224927261
vn 0.361722618 -0.224927753 -0.90474546
vn 0.361722618 0.224927753 -0.90474546
vn -0.361722469 0.224927709 -0.90474546
vn -0.361722469 -0.224927723 -0.90474546
vn 0.990130246 -0.0991009176 -0.0991009623
vn 0.990130365 0.0991009176 -0.0991009623
vn 0.361722618 0.224927753 -0.90474546
vn 0.361722618 -0.224927753 -0.90474546
vn 0.990130246 -0.0991009176 0.0991009623
vn 0.990130246 -0.0991009176 -0.0991009623
vn 0.361722261 -0.904745698 -0.224927276
vn 0.361722261 -0.904745698 0.224927276
vn 0.990130365 0.0991009176 0.0991009623
vn 0.990130246 -0.0991009176 0.0991009623
vn 0.361722618 -0.224927753 0.90474546
vn 0.361722618 0.224927753 0.90474546
vn 0.990130365 0.0991009176 -0.0991009623
vn 0.990130365 0.0991009176 0.0991009623
vn 0.361722261 0.904745698 0.224927276
vn 0.361722261 0.904745698 -0.224927276
vn -0.361722142 0.904745698 0.224927276
vn 0.361722261 0.904745698 0.224927276
vn 0.361722618 0.224927753 0.90474546
vn -0.361722469 0.224927709 0.90474546
vn -0.361722142 0.904745758 -0.224927261
vn -0.361722142 0.904745698 0.224927276
vn -0.990130246 0.0991009697 0.0991009846
vn -0.990130246 0.0991009697 -0.0991009846
vn 0.361722261 0.904745698 -0.224927276
vn -0.361722142 0.904745758 -0.224927261
vn -0.361722469 0.224927709 -0.90474546
vn 0.361722618 0.224927753 -0.90474546
vn -0.361722469 -0.224927723 -0.90474546
vn -0.361722469 0.224927709 -0.90474546
vn -0.990130246 0.0991009697 -0.0991009846
vn -0.990130246 -0.0991009846 -0.0991009921
vn 0.361722618 -0.224927753 -0.90474546
vn -0.361722469 -0.224927723 -0.90474546
vn -0.361722142 -0.904745698 -0.224927276
vn 0.361722261 -0.904745698 -0.224927276
vn -0.361722142 -0.904745758 0.224927261
vn -0.361722142 -0.904745698 -0.224927276
vn -0.990130246 -0.0991009846 -0.0991009921
vn -0.990130246 -0.0991009846 0.0991009921
vn 0.361722261 -0.904745698 0.224927276
vn -0.361722142 -0.904745758 0.224927261
vn -0.361722469 -0.224927709 0.90474546
vn 0.361722618 -0.224927753 0.90474546
vn -0.361722469 0.224927709 0.90474546
vn -0.361722469 -0.224927709 0.90474546
vn -0.990130246 -0.0991009846 0.0991009921
vn -0.990130246 0.0991009697 0.0991009846
vn 0.990130365 0.0991009176 0.0991009623
vn 0.904533982 0.301511556 0.301511139
vn 0.904534042 0.301511586 0.301511168
vn 0.904533982 0.301511556 -0.301511139
vn 0.990130365 0.0991009176 -0.0991009623
vn 0.904534042 0.301511586 -0.301511168
vn 0.990130246 -0.0991009176 -0.0991009623
vn 0.904533982 -0.301511556 -0.301511139
vn 0.904534042 -0.301511586 -0.301511168
vn 0.990130246 -0.0991009176 0.0991009623
vn 0.904534042 -0.301511586 0.301511168
vn 0.904533982 -0.301511556 0.301511139
vn -0.904533982 0.301511735 -0.301511288
vn -0.990130246 0.0991009697 -0.0991009846
vn -0.904533863 0.301511705 -0.301511258
vn -0.904533982 0.301511735 0.301511288
vn -0.904533863 0.301511705 0.301511258
vn -0.990130246 0.0991009697 0.0991009846
vn -0.904533863 -0.301511705 -0.301511258
vn -0.990130246 -0.0991009846 -0.0991009921
vn -0.904533982 -0.301511735 -0.301511288
vn -0.904533982 -0.301511735 0.301511288
vn -0.990130246 -0.0991009846 0.0991009921
vn -0.904533863 -0.301511705 0.301511258
vn 1 0 -0
vn 1 -0 0
vn 1 -0 -0
vn 1 -0 -0
vn 1 -0 -0
vn 1 -0 -0
vn 1 0 -0
vn 1 -0 0
vn 1 -0 0
vn 1 0 -0
vn 1 -0 -0
vn 1 0 0
vn 1 0 0
vn 1 -0 -0
vn 1 -0 0
vn 1 0 -0
vn -1 0 -0
vn -1 -0 -0
vn -1 0 0
vn -1 -0 -0
vn -1 -0 -0
vn -1 -0 0
vn -1 -0 -0
vn -1 0 0
vn -1 -0 0
vn -1 0 0
vn -1 -0 -0
vn -1 -0 -0
vn -1 0 0
vn -1 0 -0
vn -1 -0 -0
vn -1 -0 -0
vn -0 -1 -0
vn 0 -1 -0
vn -0 -1 -0
vn -0 -1 0
vn 0 0 1
vn -0 -0 1
vn -0 -0 1
vn -0 -0 1
vn -0 1 -0
vn -0 1 -0
vn -0 1 -0
vn 0 1 0
vn -0 0 -1
vn -0 -0 -1
vn 0 -0 -1
vn -0 -0 -1
vn -0 1 -0
vn -0 1 -0
vn -0 1 -0
vn 0 1 0
vn 0 0 1
vn -0 -0 1
vn -0 -0 1
vn -0 -0 1
vn -0 -1 -0
vn 0 -1 -0
vn -0 -1 -0
vn -0 -1 0
vn -0 0 -1
vn -0 -0 -1
vn 0 -0 -1
vn -0 -0 -1
vn 1 -0 -0
vn 1 -0 -0
vn 1 -0 -0
vn 1 0 0
vn 0 1 0
vn -0 1 -0
vn -0 1 -0
vn -0 1 -0
vn -0 -0 -1
vn -0 0 -1
vn -0 -0 -1
vn 0 -0 -1
vn -0 -1 0
vn -0 -1 -0
vn 0 -1 -0
vn -0 -1 -0
vn -0 -0 1
vn 0 0 1
vn -0 -0 1
vn -0 -0 1
g 
f 1//1 9//2 10//3 2//4
f 2//5 10//6 11//7 4//8
f 4//9 11//10 12//11 3//12
f 3//13 12//14 9//15 1//16
f 5//17 6//18 29//19 30//20
f 6//21 7//22 32//23 29//24
f 7//25 8//26 31//27 32//28
f 8//29 5//30 30//31 31//32
f 1//33 2//34 6//35 5//36
f 2//37 4//38 7//39 6//40
f 4//41 3//42 8//43 7//44
f 3//45 1//46 5//47 8//48
f 13//49 14//50 15//51 16//52
f 25//53 26//54 27//55 28//56
f 21//57 22//58 23//59 24//60
f 17//61 18//62 19//63 20//64
f 11//65 10//66 18//67 17//68
f 12//69 11//70 22//71 21//72
f 9//73 12//74 26//75 25//76
f 10//77 9//78 14//79 13//80
f 15//81 14//82 25//83 28//84
f 16//85 15//86 30//87 29//88
f 13//89 16//90 19//91 18//92
f 20//93 19//94 29//95 32//96
f 17//97 20//98 23//99 22//100
f 24//101 23//102 32//103 31//104
f 21//105 24//106 27//107 26//108
f 28//109 27//110 31//111 30//112
f 9//113 25//114 14//115
f 18//116 10//117 13//118
f 11//119 17//120 22//121
f 12//122 21//123 26//124
f 16//125 29//126 19//127
f 15//128 28//129 30//130
f 20//131 32//132 23//133
f 24//134 31//135 27//136
f 33//137 37//138 38//139 34//140
f 34//141 38//142 39//143 35//144
f 35//145 39//146 40//147 36//148
f 36//149 40//150 37//151 33//152
f 41//153 42//154 43//155 44//156
f 42//157 45//158 46//159 43//160
f 45//161 47//162 48//163 46//164
f 47//165 41//166 44//167 48//168
f 33//169 34//170 42//171 41//172
f 34//173 35//174 45//175 42//176
f 35//177 36//178 47//179 45//180
f 36//181 33//182 41//183 47//184
f 38//185 37//186 44//187 43//188
f 37//189 40//190 48//191 44//192
f 40//193 39//194 46//195 48//196
f 39//197 38//198 43//199 46//200
f 50//205 53//206 54//207 49//208
f 49//209 54//210 55//211 52//212
f 52//213 55//214 56//215 51//216
f 51//217 56//218 53//219 50//220
g extrudeSide
f 53//201 56//202 55//203 54//204
